<?xml version="1.0" encoding="UTF-8" standalone="no"?>
<!DOCTYPE svg PUBLIC "-//W3C//DTD SVG 1.1//EN"
 "http://www.w3.org/Graphics/SVG/1.1/DTD/svg11.dtd">
<!-- Generated by graphviz version 2.40.1 (20161225.0304)
 -->
<!-- Title: G Pages: 1 -->
<svg width="1467pt" height="758pt"
 viewBox="0.00 0.00 1467.00 758.00" xmlns="http://www.w3.org/2000/svg" xmlns:xlink="http://www.w3.org/1999/xlink">
<g id="graph0" class="graph" transform="scale(1 1) rotate(0) translate(4 754)">
<title>G</title>
<polygon fill="#ffffff" stroke="transparent" points="-4,4 -4,-754 1463,-754 1463,4 -4,4"/>
<g id="clust1" class="cluster">
<title>clusterbr_com_munif_framework_test_vicente_domain_model</title>
<polygon fill="none" stroke="#000000" points="8,-350 8,-742 548,-742 548,-350 8,-350"/>
<text text-anchor="middle" x="278" y="-731.6" font-family="Bitstream Vera Sans" font-size="8.00" fill="#000000">br.com.munif.framework.test.vicente.domain.model</text>
</g>
<g id="clust2" class="cluster">
<title>clusterbr_com_munif_framework_test_vicente_domain_model_smartsearch</title>
<polygon fill="none" stroke="#000000" points="699,-8 699,-715 994,-715 994,-8 699,-8"/>
<text text-anchor="middle" x="846.5" y="-704.6" font-family="Bitstream Vera Sans" font-size="8.00" fill="#000000">br.com.munif.framework.test.vicente.domain.model.smartsearch</text>
</g>
<g id="clust3" class="cluster">
<title>clusterbr_com_munif_framework_vicente_domain_tenancyfields</title>
<polygon fill="none" stroke="#000000" points="1002,-296 1002,-728.5 1252,-728.5 1252,-296 1002,-296"/>
<text text-anchor="middle" x="1127" y="-718.1" font-family="Bitstream Vera Sans" font-size="8.00" fill="#000000">br.com.munif.framework.vicente.domain.tenancyfields</text>
</g>
<g id="clust4" class="cluster">
<title>clusterbr_com_munif_framework_vicente_domain</title>
<polygon fill="none" stroke="#000000" points="1260,-603 1260,-715 1451,-715 1451,-603 1260,-603"/>
<text text-anchor="middle" x="1355.5" y="-704.6" font-family="Bitstream Vera Sans" font-size="8.00" fill="#000000">br.com.munif.framework.vicente.domain</text>
</g>
<!-- Salario -->
<g id="node1" class="node">
<title>Salario</title>
<polygon fill="none" stroke="#000000" points="451.5,-620.5 451.5,-680.5 540.5,-680.5 540.5,-620.5 451.5,-620.5"/>
<text text-anchor="middle" x="496" y="-670.1" font-family="Bitstream Vera Sans" font-size="8.00" fill="#000000">Salario</text>
<polyline fill="none" stroke="#000000" points="451.5,-663.5 540.5,-663.5 "/>
<text text-anchor="start" x="459.5" y="-653.1" font-family="Bitstream Vera Sans" font-size="8.00" fill="#000000">nome:String</text>
<text text-anchor="start" x="459.5" y="-644.1" font-family="Bitstream Vera Sans" font-size="8.00" fill="#000000">valor:BigDecimal</text>
<polyline fill="none" stroke="#000000" points="451.5,-637.5 540.5,-637.5 "/>
<text text-anchor="middle" x="496" y="-627.1" font-family="Bitstream Vera Sans" font-size="8.00" fill="#000000"> </text>
</g>
<!-- Pessoa -->
<g id="node2" class="node">
<title>Pessoa</title>
<polygon fill="none" stroke="#000000" points="326.5,-584.5 326.5,-716.5 433.5,-716.5 433.5,-584.5 326.5,-584.5"/>
<text text-anchor="middle" x="380" y="-706.1" font-family="Bitstream Vera Sans" font-size="8.00" fill="#000000">Pessoa</text>
<polyline fill="none" stroke="#000000" points="326.5,-699.5 433.5,-699.5 "/>
<text text-anchor="start" x="334.5" y="-689.1" font-family="Bitstream Vera Sans" font-size="8.00" fill="#000000">nome:String</text>
<text text-anchor="start" x="334.5" y="-680.1" font-family="Bitstream Vera Sans" font-size="8.00" fill="#000000">apelido:String</text>
<text text-anchor="start" x="334.5" y="-671.1" font-family="Bitstream Vera Sans" font-size="8.00" fill="#000000">documento:String</text>
<text text-anchor="start" x="334.5" y="-662.1" font-family="Bitstream Vera Sans" font-size="8.00" fill="#000000">nascimento:Date</text>
<text text-anchor="start" x="334.5" y="-653.1" font-family="Bitstream Vera Sans" font-size="8.00" fill="#000000">vicEmail:VicEmail</text>
<text text-anchor="start" x="334.5" y="-644.1" font-family="Bitstream Vera Sans" font-size="8.00" fill="#000000">endereco:VicAddress</text>
<text text-anchor="start" x="334.5" y="-635.1" font-family="Bitstream Vera Sans" font-size="8.00" fill="#000000">telefone:VicPhone</text>
<text text-anchor="start" x="334.5" y="-626.1" font-family="Bitstream Vera Sans" font-size="8.00" fill="#000000">outrosEnderecos:List</text>
<text text-anchor="start" x="334.5" y="-617.1" font-family="Bitstream Vera Sans" font-size="8.00" fill="#000000">outrosEmails:List</text>
<text text-anchor="start" x="334.5" y="-608.1" font-family="Bitstream Vera Sans" font-size="8.00" fill="#000000">outrosTelefones:List</text>
<polyline fill="none" stroke="#000000" points="326.5,-601.5 433.5,-601.5 "/>
<text text-anchor="middle" x="380" y="-591.1" font-family="Bitstream Vera Sans" font-size="8.00" fill="#000000"> </text>
</g>
<!-- Endereco -->
<g id="node4" class="node">
<title>Endereco</title>
<polygon fill="none" stroke="#000000" points="205.5,-358.5 205.5,-418.5 312.5,-418.5 312.5,-358.5 205.5,-358.5"/>
<text text-anchor="middle" x="259" y="-408.1" font-family="Bitstream Vera Sans" font-size="8.00" fill="#000000">Endereco</text>
<polyline fill="none" stroke="#000000" points="205.5,-401.5 312.5,-401.5 "/>
<text text-anchor="start" x="213.5" y="-391.1" font-family="Bitstream Vera Sans" font-size="8.00" fill="#000000">endereco:VicAddress</text>
<text text-anchor="start" x="213.5" y="-382.1" font-family="Bitstream Vera Sans" font-size="8.00" fill="#000000">descricao:String</text>
<polyline fill="none" stroke="#000000" points="205.5,-375.5 312.5,-375.5 "/>
<text text-anchor="middle" x="259" y="-365.1" font-family="Bitstream Vera Sans" font-size="8.00" fill="#000000"> </text>
</g>
<!-- Pessoa&#45;&gt;Endereco -->
<g id="edge4" class="edge">
<title>Pessoa&#45;&gt;Endereco</title>
<path fill="none" stroke="#000000" d="M326.454,-586.0302C317.7643,-573.5862 309.4986,-560.2762 303,-547 282.3464,-504.8058 270.068,-451.3921 263.9294,-418.5999"/>
<text text-anchor="middle" x="339" y="-526.6" font-family="Bitstream Vera Sans" font-size="8.00" fill="#000000">outrosEnderecos</text>
<text text-anchor="middle" x="261.4294" y="-421.1999" font-family="Bitstream Vera Sans" font-size="8.00" fill="#000000">*</text>
<text text-anchor="middle" x="319.454" y="-588.6302" font-family="Bitstream Vera Sans" font-size="8.00" fill="#000000">1@</text>
</g>
<!-- Telefone -->
<g id="node6" class="node">
<title>Telefone</title>
<polygon fill="none" stroke="#000000" points="330.5,-363 330.5,-414 427.5,-414 427.5,-363 330.5,-363"/>
<text text-anchor="middle" x="379" y="-403.6" font-family="Bitstream Vera Sans" font-size="8.00" fill="#000000">Telefone</text>
<polyline fill="none" stroke="#000000" points="330.5,-397 427.5,-397 "/>
<text text-anchor="start" x="338.5" y="-386.6" font-family="Bitstream Vera Sans" font-size="8.00" fill="#000000">vicPhone:VicPhone</text>
<polyline fill="none" stroke="#000000" points="330.5,-380 427.5,-380 "/>
<text text-anchor="middle" x="379" y="-369.6" font-family="Bitstream Vera Sans" font-size="8.00" fill="#000000"> </text>
</g>
<!-- Pessoa&#45;&gt;Telefone -->
<g id="edge1" class="edge">
<title>Pessoa&#45;&gt;Telefone</title>
<path fill="none" stroke="#000000" d="M379.7477,-584.3863C379.537,-529.2067 379.248,-453.4783 379.0985,-414.3086"/>
<text text-anchor="middle" x="413.5" y="-526.6" font-family="Bitstream Vera Sans" font-size="8.00" fill="#000000">outrosTelefones</text>
<text text-anchor="middle" x="376.5985" y="-416.9086" font-family="Bitstream Vera Sans" font-size="8.00" fill="#000000">*</text>
<text text-anchor="middle" x="372.7477" y="-577.9863" font-family="Bitstream Vera Sans" font-size="8.00" fill="#000000">1@</text>
</g>
<!-- Email -->
<g id="node8" class="node">
<title>Email</title>
<polygon fill="none" stroke="#000000" points="445.5,-363 445.5,-414 536.5,-414 536.5,-363 445.5,-363"/>
<text text-anchor="middle" x="491" y="-403.6" font-family="Bitstream Vera Sans" font-size="8.00" fill="#000000">Email</text>
<polyline fill="none" stroke="#000000" points="445.5,-397 536.5,-397 "/>
<text text-anchor="start" x="453.5" y="-386.6" font-family="Bitstream Vera Sans" font-size="8.00" fill="#000000">vicEmail:VicEmail</text>
<polyline fill="none" stroke="#000000" points="445.5,-380 536.5,-380 "/>
<text text-anchor="middle" x="491" y="-369.6" font-family="Bitstream Vera Sans" font-size="8.00" fill="#000000"> </text>
</g>
<!-- Pessoa&#45;&gt;Email -->
<g id="edge9" class="edge">
<title>Pessoa&#45;&gt;Email</title>
<path fill="none" stroke="#000000" d="M431.1962,-584.4298C438.96,-572.416 446.2749,-559.6656 452,-547 472.0764,-502.5852 482.7804,-446.3033 487.6433,-414.1503"/>
<text text-anchor="middle" x="492.5" y="-526.6" font-family="Bitstream Vera Sans" font-size="8.00" fill="#000000">outrosEmails</text>
<text text-anchor="middle" x="485.1433" y="-416.7503" font-family="Bitstream Vera Sans" font-size="8.00" fill="#000000">*</text>
<text text-anchor="middle" x="424.1962" y="-578.0298" font-family="Bitstream Vera Sans" font-size="8.00" fill="#000000">1@</text>
</g>
<!-- VicTenancyFieldsBaseEntity -->
<g id="node18" class="node">
<title>VicTenancyFieldsBaseEntity</title>
<polygon fill="none" stroke="#000000" points="557,-510.5 557,-546.5 691,-546.5 691,-510.5 557,-510.5"/>
<text text-anchor="middle" x="624" y="-526.6" font-family="Bitstream Vera Sans" font-size="8.00" fill="#000000">VicTenancyFieldsBaseEntity</text>
</g>
<!-- Pessoa&#45;&gt;VicTenancyFieldsBaseEntity -->
<g id="edge3" class="edge">
<title>Pessoa&#45;&gt;VicTenancyFieldsBaseEntity</title>
<path fill="none" stroke="#000000" d="M433.8399,-590.3037C436.8325,-588.0452 439.8912,-585.9274 443,-584 452.6169,-578.0378 504.2596,-562.4311 549.9334,-549.2808"/>
<polygon fill="none" stroke="#000000" points="550.9243,-552.6377 559.5717,-546.5163 548.9943,-545.909 550.9243,-552.6377"/>
</g>
<!-- Ponto -->
<g id="node3" class="node">
<title>Ponto</title>
<polygon fill="none" stroke="#000000" points="188,-616 188,-685 308,-685 308,-616 188,-616"/>
<text text-anchor="middle" x="248" y="-674.6" font-family="Bitstream Vera Sans" font-size="8.00" fill="#000000">Ponto</text>
<polyline fill="none" stroke="#000000" points="188,-668 308,-668 "/>
<text text-anchor="start" x="196" y="-657.6" font-family="Bitstream Vera Sans" font-size="8.00" fill="#000000">nome:String</text>
<text text-anchor="start" x="196" y="-648.6" font-family="Bitstream Vera Sans" font-size="8.00" fill="#000000">entrada:ZonedDateTime</text>
<text text-anchor="start" x="196" y="-639.6" font-family="Bitstream Vera Sans" font-size="8.00" fill="#000000">saida:ZonedDateTime</text>
<polyline fill="none" stroke="#000000" points="188,-633 308,-633 "/>
<text text-anchor="middle" x="248" y="-622.6" font-family="Bitstream Vera Sans" font-size="8.00" fill="#000000"> </text>
</g>
<!-- Funcionario -->
<g id="node5" class="node">
<title>Funcionario</title>
<polygon fill="none" stroke="#000000" points="102,-625 102,-676 170,-676 170,-625 102,-625"/>
<text text-anchor="middle" x="136" y="-665.6" font-family="Bitstream Vera Sans" font-size="8.00" fill="#000000">Funcionario</text>
<polyline fill="none" stroke="#000000" points="102,-659 170,-659 "/>
<text text-anchor="start" x="110" y="-648.6" font-family="Bitstream Vera Sans" font-size="8.00" fill="#000000">nome:String</text>
<polyline fill="none" stroke="#000000" points="102,-642 170,-642 "/>
<text text-anchor="middle" x="136" y="-631.6" font-family="Bitstream Vera Sans" font-size="8.00" fill="#000000"> </text>
</g>
<!-- Consultor -->
<g id="node7" class="node">
<title>Consultor</title>
<polygon fill="none" stroke="#000000" points="16,-625 16,-676 84,-676 84,-625 16,-625"/>
<text text-anchor="middle" x="50" y="-665.6" font-family="Bitstream Vera Sans" font-size="8.00" fill="#000000">Consultor</text>
<polyline fill="none" stroke="#000000" points="16,-659 84,-659 "/>
<text text-anchor="start" x="24" y="-648.6" font-family="Bitstream Vera Sans" font-size="8.00" fill="#000000">nome:String</text>
<polyline fill="none" stroke="#000000" points="16,-642 84,-642 "/>
<text text-anchor="middle" x="50" y="-631.6" font-family="Bitstream Vera Sans" font-size="8.00" fill="#000000"> </text>
</g>
<!-- Produto -->
<g id="node9" class="node">
<title>Produto</title>
<polygon fill="none" stroke="#000000" points="738.5,-349.5 738.5,-427.5 839.5,-427.5 839.5,-349.5 738.5,-349.5"/>
<text text-anchor="middle" x="789" y="-417.1" font-family="Bitstream Vera Sans" font-size="8.00" fill="#000000">Produto</text>
<polyline fill="none" stroke="#000000" points="738.5,-410.5 839.5,-410.5 "/>
<text text-anchor="start" x="746.5" y="-400.1" font-family="Bitstream Vera Sans" font-size="8.00" fill="#000000">nome:String</text>
<text text-anchor="start" x="746.5" y="-391.1" font-family="Bitstream Vera Sans" font-size="8.00" fill="#000000">quantidade:Integer</text>
<text text-anchor="start" x="746.5" y="-382.1" font-family="Bitstream Vera Sans" font-size="8.00" fill="#000000">valor:BigDecimal</text>
<text text-anchor="start" x="746.5" y="-373.1" font-family="Bitstream Vera Sans" font-size="8.00" fill="#000000">categoria:Categoria</text>
<polyline fill="none" stroke="#000000" points="738.5,-366.5 839.5,-366.5 "/>
<text text-anchor="middle" x="789" y="-356.1" font-family="Bitstream Vera Sans" font-size="8.00" fill="#000000"> </text>
</g>
<!-- Categoria -->
<g id="node12" class="node">
<title>Categoria</title>
<polygon fill="none" stroke="#000000" points="755,-160.5 755,-211.5 823,-211.5 823,-160.5 755,-160.5"/>
<text text-anchor="middle" x="789" y="-201.1" font-family="Bitstream Vera Sans" font-size="8.00" fill="#000000">Categoria</text>
<polyline fill="none" stroke="#000000" points="755,-194.5 823,-194.5 "/>
<text text-anchor="start" x="763" y="-184.1" font-family="Bitstream Vera Sans" font-size="8.00" fill="#000000">nome:String</text>
<polyline fill="none" stroke="#000000" points="755,-177.5 823,-177.5 "/>
<text text-anchor="middle" x="789" y="-167.1" font-family="Bitstream Vera Sans" font-size="8.00" fill="#000000"> </text>
</g>
<!-- Produto&#45;&gt;Categoria -->
<g id="edge7" class="edge">
<title>Produto&#45;&gt;Categoria</title>
<path fill="none" stroke="#000000" d="M789,-349.456C789,-308.8857 789,-246.5599 789,-211.7624"/>
<text text-anchor="middle" x="809" y="-260.6" font-family="Bitstream Vera Sans" font-size="8.00" fill="#000000">categoria</text>
<text text-anchor="middle" x="786" y="-214.3624" font-family="Bitstream Vera Sans" font-size="8.00" fill="#000000">1</text>
<text text-anchor="middle" x="782.5" y="-343.056" font-family="Bitstream Vera Sans" font-size="8.00" fill="#000000">*@</text>
</g>
<!-- Cliente -->
<g id="node10" class="node">
<title>Cliente</title>
<polygon fill="none" stroke="#000000" points="850,-151.5 850,-220.5 942,-220.5 942,-151.5 850,-151.5"/>
<text text-anchor="middle" x="896" y="-210.1" font-family="Bitstream Vera Sans" font-size="8.00" fill="#000000">Cliente</text>
<polyline fill="none" stroke="#000000" points="850,-203.5 942,-203.5 "/>
<text text-anchor="start" x="858" y="-193.1" font-family="Bitstream Vera Sans" font-size="8.00" fill="#000000">nome:String</text>
<text text-anchor="start" x="858" y="-184.1" font-family="Bitstream Vera Sans" font-size="8.00" fill="#000000">cidade:String</text>
<text text-anchor="start" x="858" y="-175.1" font-family="Bitstream Vera Sans" font-size="8.00" fill="#000000">grupoClientes:List</text>
<polyline fill="none" stroke="#000000" points="850,-168.5 942,-168.5 "/>
<text text-anchor="middle" x="896" y="-158.1" font-family="Bitstream Vera Sans" font-size="8.00" fill="#000000"> </text>
</g>
<!-- GrupoClientes -->
<g id="node11" class="node">
<title>GrupoClientes</title>
<polygon fill="none" stroke="#000000" points="848.5,-16.5 848.5,-67.5 943.5,-67.5 943.5,-16.5 848.5,-16.5"/>
<text text-anchor="middle" x="896" y="-57.1" font-family="Bitstream Vera Sans" font-size="8.00" fill="#000000">GrupoClientes</text>
<polyline fill="none" stroke="#000000" points="848.5,-50.5 943.5,-50.5 "/>
<text text-anchor="start" x="856.5" y="-40.1" font-family="Bitstream Vera Sans" font-size="8.00" fill="#000000">nomeGrupo:String</text>
<polyline fill="none" stroke="#000000" points="848.5,-33.5 943.5,-33.5 "/>
<text text-anchor="middle" x="896" y="-23.1" font-family="Bitstream Vera Sans" font-size="8.00" fill="#000000"> </text>
</g>
<!-- Cliente&#45;&gt;GrupoClientes -->
<g id="edge2" class="edge">
<title>Cliente&#45;&gt;GrupoClientes</title>
<path fill="none" stroke="#000000" d="M896,-151.1416C896,-125.3382 896,-90.7706 896,-67.5111"/>
<text text-anchor="middle" x="925.5" y="-107.6" font-family="Bitstream Vera Sans" font-size="8.00" fill="#000000">grupoClientes</text>
<text text-anchor="middle" x="893.5" y="-70.1111" font-family="Bitstream Vera Sans" font-size="8.00" fill="#000000">*</text>
<text text-anchor="middle" x="889.5" y="-144.7416" font-family="Bitstream Vera Sans" font-size="8.00" fill="#000000">*@</text>
</g>
<!-- ItemPedido -->
<g id="node13" class="node">
<title>ItemPedido</title>
<polygon fill="none" stroke="#000000" points="781,-611.5 781,-689.5 903,-689.5 903,-611.5 781,-611.5"/>
<text text-anchor="middle" x="842" y="-679.1" font-family="Bitstream Vera Sans" font-size="8.00" fill="#000000">ItemPedido</text>
<polyline fill="none" stroke="#000000" points="781,-672.5 903,-672.5 "/>
<text text-anchor="start" x="789" y="-662.1" font-family="Bitstream Vera Sans" font-size="8.00" fill="#000000">quantidade:Integer</text>
<text text-anchor="start" x="789" y="-653.1" font-family="Bitstream Vera Sans" font-size="8.00" fill="#000000">valorUnitario:BigDecimal</text>
<text text-anchor="start" x="789" y="-644.1" font-family="Bitstream Vera Sans" font-size="8.00" fill="#000000">produto:Produto</text>
<text text-anchor="start" x="789" y="-635.1" font-family="Bitstream Vera Sans" font-size="8.00" fill="#000000">pedido:Pedido</text>
<polyline fill="none" stroke="#000000" points="781,-628.5 903,-628.5 "/>
<text text-anchor="middle" x="842" y="-618.1" font-family="Bitstream Vera Sans" font-size="8.00" fill="#000000"> </text>
</g>
<!-- ItemPedido&#45;&gt;Produto -->
<g id="edge8" class="edge">
<title>ItemPedido&#45;&gt;Produto</title>
<path fill="none" stroke="#000000" d="M834.0654,-611.276C824.0449,-561.7409 806.9073,-477.0227 796.9022,-427.5637"/>
<text text-anchor="middle" x="837" y="-526.6" font-family="Bitstream Vera Sans" font-size="8.00" fill="#000000">produto</text>
<text text-anchor="middle" x="793.9022" y="-430.1637" font-family="Bitstream Vera Sans" font-size="8.00" fill="#000000">1</text>
<text text-anchor="middle" x="827.5654" y="-604.876" font-family="Bitstream Vera Sans" font-size="8.00" fill="#000000">*@</text>
</g>
<!-- Pedido -->
<g id="node14" class="node">
<title>Pedido</title>
<polygon fill="none" stroke="#000000" points="857.5,-363 857.5,-414 934.5,-414 934.5,-363 857.5,-363"/>
<text text-anchor="middle" x="896" y="-403.6" font-family="Bitstream Vera Sans" font-size="8.00" fill="#000000">Pedido</text>
<polyline fill="none" stroke="#000000" points="857.5,-397 934.5,-397 "/>
<text text-anchor="start" x="865.5" y="-386.6" font-family="Bitstream Vera Sans" font-size="8.00" fill="#000000">cliente:Cliente</text>
<polyline fill="none" stroke="#000000" points="857.5,-380 934.5,-380 "/>
<text text-anchor="middle" x="896" y="-369.6" font-family="Bitstream Vera Sans" font-size="8.00" fill="#000000"> </text>
</g>
<!-- ItemPedido&#45;&gt;Pedido -->
<g id="edge5" class="edge">
<title>ItemPedido&#45;&gt;Pedido</title>
<path fill="none" stroke="#000000" d="M850.0843,-611.276C861.2942,-556.8873 881.2462,-460.0831 890.7222,-414.1071"/>
<text text-anchor="middle" x="884.5" y="-526.6" font-family="Bitstream Vera Sans" font-size="8.00" fill="#000000">pedido</text>
<text text-anchor="middle" x="887.7222" y="-416.7071" font-family="Bitstream Vera Sans" font-size="8.00" fill="#000000">1</text>
<text text-anchor="middle" x="843.5843" y="-604.876" font-family="Bitstream Vera Sans" font-size="8.00" fill="#000000">*@</text>
</g>
<!-- Pedido&#45;&gt;Cliente -->
<g id="edge6" class="edge">
<title>Pedido&#45;&gt;Cliente</title>
<path fill="none" stroke="#000000" d="M896,-362.8532C896,-326.775 896,-260.9417 896,-220.5719"/>
<text text-anchor="middle" x="910" y="-260.6" font-family="Bitstream Vera Sans" font-size="8.00" fill="#000000">cliente</text>
<text text-anchor="middle" x="893" y="-223.1719" font-family="Bitstream Vera Sans" font-size="8.00" fill="#000000">1</text>
<text text-anchor="middle" x="889.5" y="-356.4532" font-family="Bitstream Vera Sans" font-size="8.00" fill="#000000">*@</text>
</g>
<!-- VicField -->
<g id="node15" class="node">
<title>VicField</title>
<polygon fill="none" stroke="#000000" points="1060.5,-304.5 1060.5,-472.5 1193.5,-472.5 1193.5,-304.5 1060.5,-304.5"/>
<text text-anchor="middle" x="1127" y="-462.1" font-family="Bitstream Vera Sans" font-size="8.00" fill="#000000">VicField</text>
<polyline fill="none" stroke="#000000" points="1060.5,-455.5 1193.5,-455.5 "/>
<text text-anchor="start" x="1068.5" y="-445.1" font-family="Bitstream Vera Sans" font-size="8.00" fill="#000000">clazz:String</text>
<text text-anchor="start" x="1068.5" y="-436.1" font-family="Bitstream Vera Sans" font-size="8.00" fill="#000000">name:String</text>
<text text-anchor="start" x="1068.5" y="-427.1" font-family="Bitstream Vera Sans" font-size="8.00" fill="#000000">description:String</text>
<text text-anchor="start" x="1068.5" y="-418.1" font-family="Bitstream Vera Sans" font-size="8.00" fill="#000000">fieldType:VicFieldType</text>
<text text-anchor="start" x="1068.5" y="-409.1" font-family="Bitstream Vera Sans" font-size="8.00" fill="#000000">validationDescription:String</text>
<text text-anchor="start" x="1068.5" y="-400.1" font-family="Bitstream Vera Sans" font-size="8.00" fill="#000000">validationScript:String</text>
<text text-anchor="start" x="1068.5" y="-391.1" font-family="Bitstream Vera Sans" font-size="8.00" fill="#000000">defaultValueScript:String</text>
<text text-anchor="start" x="1068.5" y="-382.1" font-family="Bitstream Vera Sans" font-size="8.00" fill="#000000">options:String</text>
<text text-anchor="start" x="1068.5" y="-373.1" font-family="Bitstream Vera Sans" font-size="8.00" fill="#000000">optionValueField:String</text>
<text text-anchor="start" x="1068.5" y="-364.1" font-family="Bitstream Vera Sans" font-size="8.00" fill="#000000">optionLabelField:String</text>
<text text-anchor="start" x="1068.5" y="-355.1" font-family="Bitstream Vera Sans" font-size="8.00" fill="#000000">optionsCollection:String</text>
<text text-anchor="start" x="1068.5" y="-346.1" font-family="Bitstream Vera Sans" font-size="8.00" fill="#000000">visualizationOrder:Double</text>
<text text-anchor="start" x="1068.5" y="-337.1" font-family="Bitstream Vera Sans" font-size="8.00" fill="#000000">fieldGroup:String</text>
<text text-anchor="start" x="1068.5" y="-328.1" font-family="Bitstream Vera Sans" font-size="8.00" fill="#000000">translateKey:String</text>
<polyline fill="none" stroke="#000000" points="1060.5,-321.5 1193.5,-321.5 "/>
<text text-anchor="middle" x="1127" y="-311.1" font-family="Bitstream Vera Sans" font-size="8.00" fill="#000000"> </text>
</g>
<!-- VicFieldValue -->
<g id="node16" class="node">
<title>VicFieldValue</title>
<polygon fill="none" stroke="#000000" points="1065,-598 1065,-703 1189,-703 1189,-598 1065,-598"/>
<text text-anchor="middle" x="1127" y="-692.6" font-family="Bitstream Vera Sans" font-size="8.00" fill="#000000">VicFieldValue</text>
<polyline fill="none" stroke="#000000" points="1065,-686 1189,-686 "/>
<text text-anchor="start" x="1073" y="-675.6" font-family="Bitstream Vera Sans" font-size="8.00" fill="#000000">vicField:VicField</text>
<text text-anchor="start" x="1073" y="-666.6" font-family="Bitstream Vera Sans" font-size="8.00" fill="#000000">entityId:String</text>
<text text-anchor="start" x="1073" y="-657.6" font-family="Bitstream Vera Sans" font-size="8.00" fill="#000000">textValue:String</text>
<text text-anchor="start" x="1073" y="-648.6" font-family="Bitstream Vera Sans" font-size="8.00" fill="#000000">numberValue:BigDecimal</text>
<text text-anchor="start" x="1073" y="-639.6" font-family="Bitstream Vera Sans" font-size="8.00" fill="#000000">dateValue:Date</text>
<text text-anchor="start" x="1073" y="-630.6" font-family="Bitstream Vera Sans" font-size="8.00" fill="#000000">logicValue:Boolean</text>
<polyline fill="none" stroke="#000000" points="1065,-624 1189,-624 "/>
<text text-anchor="start" x="1073" y="-613.6" font-family="Bitstream Vera Sans" font-size="8.00" fill="#000000">getValue:Object</text>
<text text-anchor="start" x="1073" y="-604.6" font-family="Bitstream Vera Sans" font-size="8.00" fill="#000000">setValue:void</text>
</g>
<!-- VicFieldValue&#45;&gt;VicField -->
<g id="edge10" class="edge">
<title>VicFieldValue&#45;&gt;VicField</title>
<path fill="none" stroke="#000000" d="M1127,-597.7956C1127,-561.9323 1127,-513.703 1127,-472.581"/>
<text text-anchor="middle" x="1143" y="-526.6" font-family="Bitstream Vera Sans" font-size="8.00" fill="#000000">vicField</text>
<text text-anchor="middle" x="1124" y="-475.181" font-family="Bitstream Vera Sans" font-size="8.00" fill="#000000">1</text>
<text text-anchor="middle" x="1120.5" y="-591.3956" font-family="Bitstream Vera Sans" font-size="8.00" fill="#000000">*@</text>
</g>
<!-- VicRevisionEntity -->
<g id="node17" class="node">
<title>VicRevisionEntity</title>
<polygon fill="none" stroke="#000000" points="1310.5,-611.5 1310.5,-689.5 1399.5,-689.5 1399.5,-611.5 1310.5,-611.5"/>
<text text-anchor="middle" x="1355" y="-679.1" font-family="Bitstream Vera Sans" font-size="8.00" fill="#000000">VicRevisionEntity</text>
<polyline fill="none" stroke="#000000" points="1310.5,-672.5 1399.5,-672.5 "/>
<text text-anchor="start" x="1318.5" y="-662.1" font-family="Bitstream Vera Sans" font-size="8.00" fill="#000000">id:Long</text>
<text text-anchor="start" x="1318.5" y="-653.1" font-family="Bitstream Vera Sans" font-size="8.00" fill="#000000">momento:Date</text>
<text text-anchor="start" x="1318.5" y="-644.1" font-family="Bitstream Vera Sans" font-size="8.00" fill="#000000">ip:String</text>
<text text-anchor="start" x="1318.5" y="-635.1" font-family="Bitstream Vera Sans" font-size="8.00" fill="#000000">user:String</text>
<polyline fill="none" stroke="#000000" points="1310.5,-628.5 1399.5,-628.5 "/>
<text text-anchor="middle" x="1355" y="-618.1" font-family="Bitstream Vera Sans" font-size="8.00" fill="#000000"> </text>
</g>
</g>
</svg>
